<svg xmlns="http://www.w3.org/2000/svg" width="1200" height="420" viewBox="0 0 1200 420" role="img" aria-labelledby="title desc">
  <title id="title">Balto for Mac</title>
  <desc id="desc">Double your inference speed with Qwen 3.8 27B on Apple Silicon</desc>
  <defs>
    <linearGradient id="bg" x1="0" y1="0" x2="1" y2="1">
      <stop offset="0" stop-color="#090c10"/>
      <stop offset="0.55" stop-color="#10161b"/>
      <stop offset="1" stop-color="#15191d"/>
    </linearGradient>
    <linearGradient id="speed" x1="0" y1="0" x2="1" y2="0">
      <stop offset="0" stop-color="#ff7847"/>
      <stop offset="1" stop-color="#ffb089"/>
    </linearGradient>
    <radialGradient id="glow" cx="50%" cy="50%" r="50%">
      <stop offset="0" stop-color="#ff6b35" stop-opacity=".23"/>
      <stop offset="1" stop-color="#ff6b35" stop-opacity="0"/>
    </radialGradient>
    <filter id="shadow" x="-40%" y="-40%" width="180%" height="180%">
      <feDropShadow dx="0" dy="18" stdDeviation="24" flood-color="#000" flood-opacity=".45"/>
    </filter>
    <clipPath id="card"><rect width="1200" height="420" rx="30"/></clipPath>
  </defs>

  <rect width="1200" height="420" rx="30" fill="url(#bg)"/>
  <rect x="1" y="1" width="1198" height="418" rx="29" fill="none" stroke="#ffffff" stroke-opacity=".1"/>
  <g clip-path="url(#card)">
    <circle cx="1030" cy="195" r="230" fill="url(#glow)"/>
    <path d="M0 338 C225 287 384 386 606 333 S988 266 1200 312 V420 H0Z" fill="#ff6b35" fill-opacity=".025"/>
    <path d="M0 355 C216 304 388 400 612 347 S993 283 1200 329" fill="none" stroke="url(#speed)" stroke-opacity=".18" stroke-width="2"/>

    <g transform="translate(72 66)">
      <g transform="translate(0 -7) scale(.7)">
        <path fill="#ff6b35" d="M11 19 23 8l4 12c3-1 7-1 10 0L42 8l11 11-5 12c2 4 2 9 0 13-3 7-9 11-16 11S19 51 16 44c-2-4-2-9 0-13l-5-12Z"/>
        <path fill="#101114" d="M24 32c2-2 5-3 8-3s6 1 8 3l-2 12-6 5-6-5-2-12Z"/>
        <circle cx="23" cy="29" r="2.5" fill="#101114"/>
        <circle cx="41" cy="29" r="2.5" fill="#101114"/>
        <path fill="#ff6b35" d="M28 38h8l-4 4-4-4Z"/>
      </g>
      <text x="54" y="30" fill="#f6f8fa" font-family="Inter,Segoe UI,Arial,sans-serif" font-size="26" font-weight="750" letter-spacing="-.5">BALTO</text>
      <text x="153" y="28" fill="#8d969f" font-family="Inter,Segoe UI,Arial,sans-serif" font-size="11" font-weight="700" letter-spacing="2.3">FOR APPLE SILICON</text>

      <text x="0" y="116" fill="#f6f8fa" font-family="Inter,Segoe UI,Arial,sans-serif" font-size="58" font-weight="760" letter-spacing="-2.2">Double your inference speed</text>
      <text x="0" y="174" fill="url(#speed)" font-family="Inter,Segoe UI,Arial,sans-serif" font-size="48" font-weight="720" letter-spacing="-1.5">with Qwen 3.8 27B</text>
      <text x="2" y="222" fill="#aab3bb" font-family="Inter,Segoe UI,Arial,sans-serif" font-size="20" font-weight="400">A fast local coding agent, tuned for Apple Silicon</text>

      <g transform="translate(0 259)" font-family="Inter,Segoe UI,Arial,sans-serif" font-size="12" font-weight="700" letter-spacing="1">
        <rect width="174" height="36" rx="18" fill="#ffffff" fill-opacity=".055" stroke="#ffffff" stroke-opacity=".1"/>
        <circle cx="20" cy="18" r="4" fill="#ff7847"/>
        <text x="34" y="22" fill="#d7dde2">50 TO 60 TOK/S CODE</text>
        <g transform="translate(186 0)">
          <rect width="196" height="36" rx="18" fill="#ffffff" fill-opacity=".055" stroke="#ffffff" stroke-opacity=".1"/>
          <circle cx="20" cy="18" r="4" fill="#ffb089"/>
          <text x="34" y="22" fill="#d7dde2">UP TO 262K CONTEXT</text>
        </g>
        <g transform="translate(394 0)">
          <rect width="190" height="36" rx="18" fill="#ffffff" fill-opacity=".055" stroke="#ffffff" stroke-opacity=".1"/>
          <circle cx="20" cy="18" r="4" fill="#ff8a5f"/>
          <text x="34" y="22" fill="#d7dde2">ONE-CLICK SETUP</text>
        </g>
      </g>
    </g>

    <g transform="translate(933 93) scale(3.1)" filter="url(#shadow)">
      <path fill="#ff6b35" d="M11 19 23 8l4 12c3-1 7-1 10 0L42 8l11 11-5 12c2 4 2 9 0 13-3 7-9 11-16 11S19 51 16 44c-2-4-2-9 0-13l-5-12Z"/>
      <path fill="#101114" d="M24 32c2-2 5-3 8-3s6 1 8 3l-2 12-6 5-6-5-2-12Z"/>
      <circle cx="23" cy="29" r="2.5" fill="#101114"/>
      <circle cx="41" cy="29" r="2.5" fill="#101114"/>
      <path fill="#ff6b35" d="M28 38h8l-4 4-4-4Z"/>
    </g>
    <g fill="none" stroke-linecap="round">
      <path d="M888 172h-67" stroke="#ff6b35" stroke-width="5" stroke-opacity=".85"/>
      <path d="M892 200h-103" stroke="#ff8a5f" stroke-width="4" stroke-opacity=".6"/>
      <path d="M900 226h-54" stroke="#ffb089" stroke-width="3" stroke-opacity=".45"/>
    </g>
  </g>
</svg>
