<svg xmlns="http://www.w3.org/2000/svg" viewBox="0 0 64 64">
  <defs>
    <linearGradient id="aurora" x1="8" y1="8" x2="55" y2="55" gradientUnits="userSpaceOnUse">
      <stop offset="0" stop-color="#ff4f8b"/><stop offset=".33" stop-color="#9b5cff"/><stop offset=".68" stop-color="#20c7ff"/><stop offset="1" stop-color="#27e7a1"/>
    </linearGradient>
    <linearGradient id="muzzle" x1="25" y1="30" x2="39" y2="49" gradientUnits="userSpaceOnUse"><stop stop-color="#12131a"/><stop offset="1" stop-color="#28283a"/></linearGradient>
  </defs>
  <path fill="url(#aurora)" d="M11 19 23 8l4 12c3-1 7-1 10 0L42 8l11 11-5 12c2 4 2 9 0 13-3 7-9 11-16 11S19 51 16 44c-2-4-2-9 0-13l-5-12Z"/>
  <path fill="url(#muzzle)" d="M24 32c2-2 5-3 8-3s6 1 8 3l-2 12-6 5-6-5-2-12Z"/>
  <circle cx="23" cy="29" r="2.5" fill="#11121a"/><circle cx="41" cy="29" r="2.5" fill="#11121a"/>
  <path fill="#ff6db6" d="M28 38h8l-4 4-4-4Z"/>
</svg>
